<svg id="SvgjsSvg1012" xmlns="http://www.w3.org/2000/svg" version="1.1" xmlns:xlink="http://www.w3.org/1999/xlink" xmlns:svgjs="http://svgjs.com/svgjs" width="22" height="22" viewBox="0 0 22 22"><title>Shape 3</title><desc>Created with Avocode.</desc><defs id="SvgjsDefs1013"></defs><path id="SvgjsPath1014" d="M496.25 464C496.25 466.9 493.9 469.25 491 469.25C488.101 469.25 485.75 466.9 485.75 464C485.75 461.1 488.101 458.75 491 458.75C493.9 458.75 496.25 461.1 496.25 464ZM484.813 456.575L486.05 457.813C486.392 458.154 486.392 458.709 486.05 459.05C485.709 459.392 485.15500000000003 459.392 484.813 459.05L483.575 457.813C483.234 457.471 483.234 456.917 483.575 456.575C483.917 456.234 484.471 456.234 484.813 456.575ZM497.187 468.95L498.425 470.187C498.766 470.529 498.766 471.083 498.425 471.425C498.083 471.766 497.529 471.766 497.187 471.425L495.95 470.187C495.608 469.846 495.608 469.291 495.95 468.95C496.291 468.608 496.84499999999997 468.608 497.187 468.95ZM483.575 470.187L484.813 468.95C485.155 468.608 485.709 468.608 486.05 468.95C486.392 469.291 486.392 469.846 486.05 470.187L484.813 471.425C484.471 471.766 483.917 471.766 483.575 471.425C483.234 471.083 483.234 470.529 483.575 470.187ZM495.95 457.813L497.187 456.575C497.529 456.234 498.083 456.234 498.425 456.575C498.766 456.917 498.766 457.471 498.425 457.813L497.187 459.05C496.845 459.392 496.291 459.392 495.95 459.05C495.608 458.709 495.608 458.154 495.95 457.813ZM491.875 454.375L491.875 456.125C491.875 456.608 491.483 457 491 457C490.517 457 490.125 456.608 490.125 456.125L490.125 454.375C490.125 453.892 490.517 453.5 491 453.5C491.483 453.5 491.875 453.892 491.875 454.375ZM491.875 471.875L491.875 473.625C491.875 474.108 491.483 474.5 491 474.5C490.517 474.5 490.125 474.108 490.125 473.625L490.125 471.875C490.125 471.392 490.517 471 491 471C491.483 471 491.875 471.392 491.875 471.875ZM481.375 463.125L483.125 463.125C483.608 463.125 484 463.517 484 464C484 464.483 483.608 464.875 483.125 464.875L481.375 464.875C480.892 464.875 480.5 464.483 480.5 464C480.5 463.517 480.892 463.125 481.375 463.125ZM498.875 463.125L500.625 463.125C501.108 463.125 501.5 463.517 501.5 464C501.5 464.483 501.108 464.875 500.625 464.875L498.875 464.875C498.392 464.875 498 464.483 498 464C498 463.517 498.392 463.125 498.875 463.125ZM494.5 464C494.5 462.067 492.933 460.5 491 460.5C489.067 460.5 487.5 462.067 487.5 464C487.5 465.933 489.067 467.5 491 467.5C492.933 467.5 494.5 465.933 494.5 464Z " fill="#525a5d" fill-opacity="1" transform="matrix(1,0,0,1,-480,-453)"></path></svg>