<svg id="SvgjsSvg1000" xmlns="http://www.w3.org/2000/svg" version="1.1" xmlns:xlink="http://www.w3.org/1999/xlink" xmlns:svgjs="http://svgjs.com/svgjs" width="30.00000000000003" height="19" viewBox="0 0 30.00000000000003 19"><title>Shape 1</title><desc>Created with Avocode.</desc><defs id="SvgjsDefs1001"></defs><path id="SvgjsPath1007" d="M279.779 464.299C276.832 464.299 276.261 461.76 273.884 461.76C271.317 461.76 270.93600000000004 464.32599999999996 267.98900000000003 464.32599999999996C265.04100000000005 464.32599999999996 264.66100000000006 461.76 262.093 461.76C259.581 461.76 259.146 464.299 256.19800000000004 464.299C253.25100000000003 464.299 253.25100000000003 461.156 256.19800000000004 461.156C258.711 461.156 259.146 458.666 262.093 458.666C265.041 458.666 265.50300000000004 461.183 267.98900000000003 461.183C270.531 461.183 270.934 458.666 273.884 458.666C276.832 458.666 277.23900000000003 461.129 279.779 461.129C282.727 461.129 282.727 464.29900000000004 279.779 464.29900000000004ZM279.779 458.632C276.832 458.632 276.261 456.093 273.884 456.093C271.317 456.093 270.93600000000004 458.659 267.98900000000003 458.659C265.04100000000005 458.659 264.66100000000006 456.093 262.093 456.093C259.581 456.093 259.146 458.632 256.19800000000004 458.632C253.25100000000003 458.632 253.25100000000003 455.48900000000003 256.19800000000004 455.48900000000003C258.711 455.48900000000003 259.146 452.999 262.093 452.999C265.041 452.999 265.50300000000004 455.516 267.98900000000003 455.516C270.531 455.516 270.934 452.999 273.884 452.999C276.832 452.999 277.23900000000003 455.46200000000005 279.779 455.46200000000005C282.727 455.46200000000005 282.727 458.63200000000006 279.779 458.63200000000006ZM256.198 469.966C259.14599999999996 469.966 259.58099999999996 467.426 262.09299999999996 467.426C264.66099999999994 467.426 265.04099999999994 469.993 267.989 469.993C270.936 469.993 271.31699999999995 467.426 273.88399999999996 467.426C276.26099999999997 467.426 276.83199999999994 469.966 279.77899999999994 469.966C282.7269999999999 469.966 282.7269999999999 466.795 279.77899999999994 466.795C277.2389999999999 466.795 276.83199999999994 464.333 273.88399999999996 464.333C270.93399999999997 464.333 270.53099999999995 466.84900000000005 267.989 466.84900000000005C265.503 466.84900000000005 265.041 464.333 262.09299999999996 464.333C259.14599999999996 464.333 258.71099999999996 466.822 256.198 466.822C253.25099999999998 466.822 253.25099999999998 469.966 256.198 469.966Z " fill="#525a5d" fill-opacity="1" transform="matrix(1,0,0,1,-252.49999999999997,-451.5)"></path><path id="SvgjsPath1008" d="M279.779 464.299C276.832 464.299 276.261 461.76 273.884 461.76C271.317 461.76 270.93600000000004 464.32599999999996 267.98900000000003 464.32599999999996C265.04100000000005 464.32599999999996 264.66100000000006 461.76 262.093 461.76C259.581 461.76 259.146 464.299 256.19800000000004 464.299C253.25100000000003 464.299 253.25100000000003 461.156 256.19800000000004 461.156C258.711 461.156 259.146 458.666 262.093 458.666C265.041 458.666 265.50300000000004 461.183 267.98900000000003 461.183C270.531 461.183 270.934 458.666 273.884 458.666C276.832 458.666 277.23900000000003 461.129 279.779 461.129C282.727 461.129 282.727 464.29900000000004 279.779 464.29900000000004ZM279.779 458.632C276.832 458.632 276.261 456.093 273.884 456.093C271.317 456.093 270.93600000000004 458.659 267.98900000000003 458.659C265.04100000000005 458.659 264.66100000000006 456.093 262.093 456.093C259.581 456.093 259.146 458.632 256.19800000000004 458.632C253.25100000000003 458.632 253.25100000000003 455.48900000000003 256.19800000000004 455.48900000000003C258.711 455.48900000000003 259.146 452.999 262.093 452.999C265.041 452.999 265.50300000000004 455.516 267.98900000000003 455.516C270.531 455.516 270.934 452.999 273.884 452.999C276.832 452.999 277.23900000000003 455.46200000000005 279.779 455.46200000000005C282.727 455.46200000000005 282.727 458.63200000000006 279.779 458.63200000000006ZM256.198 469.966C259.14599999999996 469.966 259.58099999999996 467.426 262.09299999999996 467.426C264.66099999999994 467.426 265.04099999999994 469.993 267.989 469.993C270.936 469.993 271.31699999999995 467.426 273.88399999999996 467.426C276.26099999999997 467.426 276.83199999999994 469.966 279.77899999999994 469.966C282.7269999999999 469.966 282.7269999999999 466.795 279.77899999999994 466.795C277.2389999999999 466.795 276.83199999999994 464.333 273.88399999999996 464.333C270.93399999999997 464.333 270.53099999999995 466.84900000000005 267.989 466.84900000000005C265.503 466.84900000000005 265.041 464.333 262.09299999999996 464.333C259.14599999999996 464.333 258.71099999999996 466.822 256.198 466.822C253.25099999999998 466.822 253.25099999999998 469.966 256.198 469.966Z " fill-opacity="0" fill="#ffffff" stroke-dasharray="0" stroke-linejoin="round" stroke-linecap="round" stroke-opacity="1" stroke="#2e3335" stroke-miterlimit="50" stroke-width="1" transform="matrix(1,0,0,1,-252.49999999999997,-451.5)"></path></svg>