<?xml version="1.0" encoding="utf-8"?><svg xmlns="http://www.w3.org/2000/svg" xmlns:xlink="http://www.w3.org/1999/xlink"><symbol viewBox="0 0 17 21" id="images--humidity"><title>Shape 2</title><path d="M14.65 6.849L8.993.988 3.336 6.849c-3.124 3.237-3.124 8.484 0 11.721 3.125 3.236 8.19 3.236 11.314 0 3.124-3.237 3.124-8.484 0-11.721zM4.593 17.267c-2.43-2.517-2.43-6.598 0-9.116l4.4-4.558 4.4 4.558c2.43 2.518 2.43 6.599 0 9.116a6.07 6.07 0 0 1-8.8 0z"/></symbol><symbol viewBox="0 0 22 22" id="images--uv"><title>Shape 3</title><path d="M16.25 11a5.25 5.25 0 1 1-10.5 0 5.25 5.25 0 1 1 10.5 0zM4.813 3.575L6.05 4.813A.874.874 0 1 1 4.813 6.05L3.575 4.813a.877.877 0 0 1 0-1.238.877.877 0 0 1 1.238 0zM17.187 15.95l1.238 1.237a.877.877 0 0 1 0 1.238.877.877 0 0 1-1.238 0l-1.237-1.238a.874.874 0 1 1 1.237-1.237zM3.575 17.187l1.238-1.237a.874.874 0 1 1 1.237 1.237l-1.237 1.238a.877.877 0 0 1-1.238 0 .877.877 0 0 1 0-1.238zM15.95 4.813l1.237-1.238a.877.877 0 0 1 1.238 0 .877.877 0 0 1 0 1.238L17.187 6.05a.874.874 0 1 1-1.237-1.237zm-4.075-3.438v1.75a.875.875 0 0 1-1.75 0v-1.75a.875.875 0 0 1 1.75 0zm0 17.5v1.75a.875.875 0 0 1-1.75 0v-1.75a.875.875 0 0 1 1.75 0zm-10.5-8.75h1.75a.875.875 0 0 1 0 1.75h-1.75a.875.875 0 0 1 0-1.75zm17.5 0h1.75a.875.875 0 0 1 0 1.75h-1.75a.875.875 0 0 1 0-1.75zM14.5 11a3.5 3.5 0 1 0-7 0 3.5 3.5 0 0 0 7 0z"/></symbol><symbol viewBox="0 0 30 19" id="images--wind-speed"><title>Shape 1</title><path d="M27.279 12.799c-2.947 0-3.518-2.539-5.895-2.539-2.567 0-2.948 2.566-5.895 2.566-2.948 0-3.328-2.566-5.896-2.566-2.512 0-2.947 2.539-5.895 2.539-2.947 0-2.947-3.143 0-3.143 2.513 0 2.948-2.49 5.895-2.49 2.948 0 3.41 2.517 5.896 2.517 2.542 0 2.945-2.517 5.895-2.517 2.948 0 3.355 2.463 5.895 2.463 2.948 0 2.948 3.17 0 3.17zm0-5.667c-2.947 0-3.518-2.539-5.895-2.539-2.567 0-2.948 2.566-5.895 2.566-2.948 0-3.328-2.566-5.896-2.566-2.512 0-2.947 2.539-5.895 2.539-2.947 0-2.947-3.143 0-3.143 2.513 0 2.948-2.49 5.895-2.49 2.948 0 3.41 2.517 5.896 2.517 2.542 0 2.945-2.517 5.895-2.517 2.948 0 3.355 2.463 5.895 2.463 2.948 0 2.948 3.17 0 3.17zM3.698 18.466c2.948 0 3.383-2.54 5.895-2.54 2.568 0 2.948 2.567 5.896 2.567 2.947 0 3.328-2.567 5.895-2.567 2.377 0 2.948 2.54 5.895 2.54 2.948 0 2.948-3.171 0-3.171-2.54 0-2.947-2.462-5.895-2.462-2.95 0-3.353 2.516-5.895 2.516-2.486 0-2.948-2.516-5.896-2.516-2.947 0-3.382 2.489-5.895 2.489-2.947 0-2.947 3.144 0 3.144z"/><path d="M27.279 12.799c-2.947 0-3.518-2.539-5.895-2.539-2.567 0-2.948 2.566-5.895 2.566-2.948 0-3.328-2.566-5.896-2.566-2.512 0-2.947 2.539-5.895 2.539-2.947 0-2.947-3.143 0-3.143 2.513 0 2.948-2.49 5.895-2.49 2.948 0 3.41 2.517 5.896 2.517 2.542 0 2.945-2.517 5.895-2.517 2.948 0 3.355 2.463 5.895 2.463 2.948 0 2.948 3.17 0 3.17zm0-5.667c-2.947 0-3.518-2.539-5.895-2.539-2.567 0-2.948 2.566-5.895 2.566-2.948 0-3.328-2.566-5.896-2.566-2.512 0-2.947 2.539-5.895 2.539-2.947 0-2.947-3.143 0-3.143 2.513 0 2.948-2.49 5.895-2.49 2.948 0 3.41 2.517 5.896 2.517 2.542 0 2.945-2.517 5.895-2.517 2.948 0 3.355 2.463 5.895 2.463 2.948 0 2.948 3.17 0 3.17zM3.698 18.466c2.948 0 3.383-2.54 5.895-2.54 2.568 0 2.948 2.567 5.896 2.567 2.947 0 3.328-2.567 5.895-2.567 2.377 0 2.948 2.54 5.895 2.54 2.948 0 2.948-3.171 0-3.171-2.54 0-2.947-2.462-5.895-2.462-2.95 0-3.353 2.516-5.895 2.516-2.486 0-2.948-2.516-5.896-2.516-2.947 0-3.382 2.489-5.895 2.489-2.947 0-2.947 3.144 0 3.144z" stroke-dasharray="0" stroke-linejoin="round" stroke-linecap="round" stroke="#2e3335" stroke-miterlimit="50" fill="none"/></symbol></svg>